# xmcd CD database file
#
# Track frame offsets:
#	150
#	23700
#	39450
#	58125
#	74325
#	86347
#	111675
#	124200
#	138312
#	155260
#	167700
#	193725
#
# Disc length: 3027 seconds
#
# Revision: 0
# Processed by: cddbd v1.4PL0 Copyright (c) Steve Scherf et al.
# Submitted via: CDex 1.50beta8
#
DISCID=a80bd10c
DTITLE=Tinu Heiniger - Miss New Orleans
DYEAR=2000
DGENRE=Jazz
TTITLE0=Beromünster
TTITLE1=Matinée
TTITLE2=Miss New Orleans
TTITLE3=Lulu
TTITLE4=Täger Reik
TTITLE5=All Of Me
TTITLE6=Du und i
TTITLE7=Muetter, la ne ga
TTITLE8=Negerbegräbnis
TTITLE9=Alei i däm Huus
TTITLE10=Du redsch viel
TTITLE11=U.S.A.
EXTD=YEAR: 2000
EXTT0=
EXTT1=
EXTT2=
EXTT3=
EXTT4=
EXTT5=
EXTT6=
EXTT7=
EXTT8=
EXTT9=
EXTT10=
EXTT11=
PLAYORDER=
